<svg xmlns="http://www.w3.org/2000/svg" width="125.9" height="23" viewBox="0 0 125.9 23">
    <defs>
        <style>
            .cls-1{fill:#4131d3}.cls-2{fill:#f1564f}
        </style>
    </defs>
    <g id="Grupo_911" transform="translate(-.153)">
        <g id="Grupo_907" transform="translate(.153)">
            <g id="Grupo_2" transform="translate(43.571 3.178)">
                <path id="Trazado_2105" d="M527.254 735.372a9.731 9.731 0 0 0-4.975-1.305 9.9 9.9 0 0 0-5 1.3 9.452 9.452 0 0 0-3.559 3.577 10.07 10.07 0 0 0-1.284 5.032 10.609 10.609 0 0 0 1.19 5.01 9.1 9.1 0 0 0 3.3 3.57 9.149 9.149 0 0 0 8.583.433 8.918 8.918 0 0 0 1.7-1.061 2.38 2.38 0 0 0 .633 1.115 2.482 2.482 0 0 0 4.252-1.769v-7.3a9.973 9.973 0 0 0-1.3-5.036 9.651 9.651 0 0 0-3.54-3.566zm-4.976 3.266a4.789 4.789 0 0 1 4.322 2.581 5.777 5.777 0 0 1 .657 2.758 5.69 5.69 0 0 1-.655 2.739 4.817 4.817 0 0 1-1.784 1.884 5.057 5.057 0 0 1-5.082 0 4.931 4.931 0 0 1-1.8-1.89 5.574 5.574 0 0 1-.667-2.732 5.671 5.671 0 0 1 .669-2.752 4.908 4.908 0 0 1 1.8-1.9 4.769 4.769 0 0 1 2.541-.689z" class="cls-1" transform="translate(-512.433 -734.033)"/>
                <path id="Trazado_2106" d="M620.115 734.656a2.48 2.48 0 0 0-1.759.686 2.429 2.429 0 0 0-.723 1.8V751.7a2.514 2.514 0 0 0 4.278 1.759 2.477 2.477 0 0 0 .686-1.759v-14.562a2.385 2.385 0 0 0-2.482-2.482z" class="cls-1" transform="translate(-594.299 -734.493)"/>
                <path id="Trazado_2107" d="M680.347 733.919a8.485 8.485 0 0 0-3.617.763 7.789 7.789 0 0 0-2.065 1.392 6.542 6.542 0 0 0-1.856-1.4 7.376 7.376 0 0 0-3.361-.758 7.621 7.621 0 0 0-2.857.533 7.086 7.086 0 0 0-1.334.708 2.4 2.4 0 0 0-.318-.375 2.422 2.422 0 0 0-1.742-.669 2.477 2.477 0 0 0-1.759.687 2.428 2.428 0 0 0-.723 1.8v14.563a2.514 2.514 0 0 0 4.277 1.759 2.475 2.475 0 0 0 .687-1.759v-9.229a3.432 3.432 0 0 1 .878-2.457 2.888 2.888 0 0 1 2.236-.919 2.74 2.74 0 0 1 2.083.784 3.44 3.44 0 0 1 .769 2.461v9.36a2.514 2.514 0 0 0 4.278 1.76 2.474 2.474 0 0 0 .687-1.76v-9.229a3.431 3.431 0 0 1 .879-2.457 2.849 2.849 0 0 1 2.2-.919 2.739 2.739 0 0 1 2.083.784 3.439 3.439 0 0 1 .769 2.461v9.36a2.514 2.514 0 0 0 4.278 1.759 2.477 2.477 0 0 0 .686-1.759V741.8a8.118 8.118 0 0 0-1.971-5.76 6.821 6.821 0 0 0-5.187-2.121z" class="cls-1" transform="translate(-627.826 -733.919)"/>
                <path id="Trazado_2108" d="M813.375 738.865a9.206 9.206 0 0 0-3.514-3.531 10.058 10.058 0 0 0-5.032-1.268 10.216 10.216 0 0 0-5.079 1.266 9.051 9.051 0 0 0-3.519 3.537 11.012 11.012 0 0 0 0 10.182 9.045 9.045 0 0 0 3.519 3.537 10.784 10.784 0 0 0 10.144 0 9.085 9.085 0 0 0 3.5-3.535 10.945 10.945 0 0 0-.019-10.187zm-3.567 5.112a5.872 5.872 0 0 1-.643 2.778 4.583 4.583 0 0 1-1.757 1.857 5.29 5.29 0 0 1-5.16 0 4.7 4.7 0 0 1-1.778-1.864 5.76 5.76 0 0 1-.655-2.771 5.854 5.854 0 0 1 .657-2.791 4.671 4.671 0 0 1 1.776-1.877 5.289 5.289 0 0 1 5.16 0 4.562 4.562 0 0 1 1.756 1.87 5.971 5.971 0 0 1 .645 2.798z" class="cls-1" transform="translate(-732.313 -734.033)"/>
            </g>
            <circle id="Elipse_39" cx="10.906" cy="10.906" r="10.906" class="cls-2" transform="translate(0 .366)"/>
            <rect id="Rectángulo_603" width="9.318" height="22.187" class="cls-1" rx="4.659" transform="translate(16.248)"/>
            <path id="Trazado_2109" fill="#5151ed" d="M373.3 737.218a11.082 11.082 0 0 0-4.941-9.231 4.633 4.633 0 0 0-.939 2.8v12.869a4.632 4.632 0 0 0 .939 2.8 11.082 11.082 0 0 0 4.941-9.238z" transform="translate(-351.175 -726.125)"/>
            <circle id="Elipse_40" cx="3.328" cy="3.328" r="3.328" class="cls-2" transform="translate(29.594 15.531)"/>
        </g>
    </g>
</svg>
